<svg width="768" height="768" viewBox="0 0 768 768" fill="none" xmlns="http://www.w3.org/2000/svg">
<circle cx="383.732" cy="383.732" r="383.732" fill="url(#paint0_linear_174_36)"/>
<mask id="mask0_174_36" style="mask-type:alpha" maskUnits="userSpaceOnUse" x="47" y="242" width="673" height="345">
<g clip-path="url(#clip0_174_36)">
<path d="M347.692 276.032L314.476 309.597L284.174 279.295C253.871 248.993 253.871 248.993 150.377 248.993C93.5024 248.993 47 249.459 47 249.925C47 250.508 54.459 258.317 63.6663 267.407C80.3325 283.957 80.3325 283.957 158.652 284.307C236.972 284.54 236.972 284.54 261.564 309.248C275.083 322.884 286.621 334.072 287.204 334.072C287.787 334.072 288.253 334.538 288.253 335.005C288.253 335.471 274.034 350.039 256.785 367.288C239.42 384.654 225.434 399.455 225.55 400.271C225.783 401.553 233.359 401.786 263.195 401.67C300.374 401.553 300.374 401.553 341.865 360.295C383.239 318.921 383.239 318.921 403.285 338.967C423.448 359.13 423.448 359.13 460.743 359.48C491.628 359.713 498.038 359.48 498.038 358.198C498.038 357.382 493.609 352.254 488.131 347.009C482.654 341.648 478.225 337.102 478.225 336.869C478.225 336.753 490.113 324.748 504.681 310.18C531.137 283.957 531.137 283.957 608.641 283.957C686.262 284.073 686.262 284.073 702.928 267.407C712.019 258.317 719.478 250.391 719.478 249.925C719.478 249.459 672.975 248.993 616.1 248.993C512.723 248.993 512.723 248.993 482.071 279.528L451.419 310.18L417.387 276.032C398.623 257.384 382.773 242.116 382.073 242.233C381.491 242.233 365.99 257.501 347.692 276.032Z" fill="black"/>
<path d="M137.907 313.327C137.907 314.143 145.949 322.884 155.739 332.674C173.454 350.505 173.454 350.505 214.828 350.738C237.555 350.855 257.135 351.438 258.184 352.02C259.699 352.72 260.515 352.37 260.981 350.972C261.563 349.456 257.018 344.328 243.032 330.459C224.268 311.928 224.268 311.928 181.146 311.928C147.347 311.928 137.907 312.278 137.907 313.327Z" fill="black"/>
<path d="M524.028 330.809C513.539 341.182 505.264 349.806 505.497 350.156C505.847 350.389 525.893 350.505 550.135 350.505C594.189 350.272 594.189 350.272 612.021 332.557C621.695 322.884 629.736 314.259 629.736 313.443C629.736 312.278 620.529 311.928 586.381 311.928C542.909 311.928 542.909 311.928 524.028 330.809Z" fill="black"/>
<path d="M353.752 386.868C338.252 402.369 325.548 415.655 325.548 416.238C325.548 417.753 381.724 473.929 383.239 473.929C383.938 473.929 391.281 467.053 399.555 458.778C414.707 443.627 414.707 443.627 470.999 443.627C527.408 443.627 527.408 443.627 541.277 429.874C548.852 422.299 555.146 415.539 555.146 414.956C555.146 414.373 549.202 407.963 541.976 400.737C528.923 387.684 528.923 387.684 471.232 387.684C413.541 387.684 413.541 387.684 398.973 373.116C390.931 365.074 383.938 358.547 383.239 358.547C382.539 358.547 369.37 371.251 353.752 386.868Z" fill="black"/>
<path d="M225.9 428.592C224.968 429.991 379.742 586.514 382.423 586.747C383.355 586.863 409.928 561.106 441.629 529.522C485.917 485.234 498.854 471.715 497.805 470.666C496.756 469.617 486.733 469.267 461.209 469.267C426.012 469.267 426.012 469.267 405.033 490.246C393.495 501.784 383.589 511.224 383.122 511.224C382.54 511.224 363.309 492.46 340.466 469.5C298.742 427.893 298.742 427.893 262.729 427.543C236.389 427.31 226.483 427.543 225.9 428.592Z" fill="black"/>
</g>
</mask>
<g mask="url(#mask0_174_36)">
<rect x="47.8741" y="241.628" width="672.186" height="345.271" fill="white"/>
</g>
<defs>
<linearGradient id="paint0_linear_174_36" x1="383.732" y1="0" x2="383.732" y2="767.464" gradientUnits="userSpaceOnUse">
<stop stop-color="#173E8E"/>
<stop offset="0.112173" stop-color="#2164AB"/>
<stop offset="0.292187" stop-color="#2B88C6"/>
<stop offset="1" stop-color="#3ABFF0"/>
</linearGradient>
<clipPath id="clip0_174_36">
<rect width="672.478" height="344.98" fill="white" transform="translate(47 242)"/>
</clipPath>
</defs>
</svg>
